<svg width="183" height="28" viewBox="0 0 183 28" fill="none" xmlns="http://www.w3.org/2000/svg">
<path d="M0.188 17.604C0.188 15.804 0.548 14.172 1.268 12.708C2.012 11.22 3.02 10.044 4.292 9.18C5.564 8.292 7.028 7.848 8.684 7.848C10.124 7.848 11.42 8.22 12.572 8.964C13.748 9.708 14.66 10.632 15.308 11.736V0.719999H19.268V22.536C19.268 22.992 19.352 23.316 19.52 23.508C19.688 23.7 19.964 23.808 20.348 23.832V27C19.604 27.12 19.028 27.18 18.62 27.18C17.876 27.18 17.24 26.964 16.712 26.532C16.208 26.1 15.944 25.584 15.92 24.984L15.884 23.58C15.164 24.78 14.192 25.716 12.968 26.388C11.744 27.036 10.472 27.36 9.152 27.36C7.856 27.36 6.656 27.108 5.552 26.604C4.472 26.1 3.524 25.392 2.708 24.48C1.916 23.568 1.292 22.524 0.836 21.348C0.404 20.172 0.188 18.924 0.188 17.604ZM15.308 20.232V15.3C15.044 14.532 14.612 13.848 14.012 13.248C13.436 12.624 12.776 12.132 12.032 11.772C11.312 11.412 10.592 11.232 9.872 11.232C9.032 11.232 8.264 11.412 7.568 11.772C6.896 12.132 6.308 12.612 5.804 13.212C5.324 13.812 4.952 14.496 4.688 15.264C4.424 16.032 4.292 16.836 4.292 17.676C4.292 18.54 4.436 19.356 4.724 20.124C5.012 20.868 5.42 21.54 5.948 22.14C6.5 22.716 7.124 23.172 7.82 23.508C8.54 23.82 9.32 23.976 10.16 23.976C10.688 23.976 11.216 23.88 11.744 23.688C12.296 23.496 12.812 23.232 13.292 22.896C13.796 22.56 14.216 22.164 14.552 21.708C14.912 21.252 15.164 20.76 15.308 20.232ZM32.8299 27.36C31.3659 27.36 30.0339 27.108 28.8339 26.604C27.6579 26.076 26.6379 25.368 25.7739 24.48C24.9099 23.568 24.2379 22.536 23.7579 21.384C23.3019 20.208 23.0739 18.96 23.0739 17.64C23.0739 15.864 23.4819 14.244 24.2979 12.78C25.1139 11.292 26.2539 10.104 27.7179 9.216C29.1819 8.304 30.8979 7.848 32.8659 7.848C34.8339 7.848 36.5259 8.304 37.9419 9.216C39.3819 10.104 40.4979 11.28 41.2899 12.744C42.0819 14.208 42.4779 15.78 42.4779 17.46C42.4779 17.748 42.4659 18.024 42.4419 18.288C42.4179 18.528 42.3939 18.732 42.3699 18.9H27.2859C27.3579 20.004 27.6579 20.976 28.1859 21.816C28.7379 22.632 29.4339 23.28 30.2739 23.76C31.1139 24.216 32.0139 24.444 32.9739 24.444C34.0299 24.444 35.0259 24.18 35.9619 23.652C36.9219 23.124 37.5699 22.428 37.9059 21.564L41.2899 22.536C40.8819 23.448 40.2579 24.276 39.4179 25.02C38.6019 25.74 37.6299 26.316 36.5019 26.748C35.3739 27.156 34.1499 27.36 32.8299 27.36ZM27.1779 16.272H38.5539C38.4819 15.192 38.1699 14.244 37.6179 13.428C37.0899 12.588 36.4059 11.94 35.5659 11.484C34.7499 11.004 33.8379 10.764 32.8299 10.764C31.8459 10.764 30.9339 11.004 30.0939 11.484C29.2779 11.94 28.6059 12.588 28.0779 13.428C27.5499 14.244 27.2499 15.192 27.1779 16.272ZM50.4367 27L43.2727 8.172H47.3767L52.7407 23.328L58.1047 8.172H61.9207L54.7567 27H50.4367ZM86.7587 27V8.784L79.2347 22.608H76.8587L69.2987 8.784V27H65.2667V1.44H69.5867L78.0467 17.064L86.5067 1.44H90.8267V27H86.7587ZM94.508 21.492C94.508 20.292 94.844 19.248 95.516 18.36C96.212 17.448 97.16 16.752 98.36 16.272C99.56 15.768 100.952 15.516 102.536 15.516C103.376 15.516 104.228 15.576 105.092 15.696C105.98 15.816 106.76 16.008 107.432 16.272V15.084C107.432 13.764 107.036 12.732 106.244 11.988C105.452 11.244 104.312 10.872 102.824 10.872C101.768 10.872 100.772 11.064 99.836 11.448C98.9 11.808 97.904 12.324 96.848 12.996L95.516 10.332C96.764 9.492 98.012 8.868 99.26 8.46C100.532 8.052 101.864 7.848 103.256 7.848C105.776 7.848 107.756 8.52 109.196 9.864C110.66 11.184 111.392 13.068 111.392 15.516V22.536C111.392 22.992 111.464 23.316 111.608 23.508C111.776 23.7 112.052 23.808 112.436 23.832V27C112.076 27.072 111.752 27.12 111.464 27.144C111.176 27.168 110.936 27.18 110.744 27.18C109.904 27.18 109.268 26.976 108.836 26.568C108.404 26.16 108.152 25.68 108.08 25.128L107.972 24.048C107.156 25.104 106.112 25.92 104.84 26.496C103.568 27.072 102.284 27.36 100.988 27.36C99.74 27.36 98.624 27.108 97.64 26.604C96.656 26.076 95.888 25.368 95.336 24.48C94.784 23.592 94.508 22.596 94.508 21.492ZM106.496 22.644C106.784 22.332 107.012 22.02 107.18 21.708C107.348 21.396 107.432 21.12 107.432 20.88V18.72C106.76 18.456 106.052 18.264 105.308 18.144C104.564 18 103.832 17.928 103.112 17.928C101.672 17.928 100.496 18.216 99.584 18.792C98.696 19.368 98.252 20.16 98.252 21.168C98.252 21.72 98.396 22.248 98.684 22.752C98.996 23.256 99.428 23.664 99.98 23.976C100.556 24.288 101.264 24.444 102.104 24.444C102.968 24.444 103.796 24.276 104.588 23.94C105.38 23.604 106.016 23.172 106.496 22.644ZM122.892 27.36C121.308 27.36 119.808 27.108 118.392 26.604C116.976 26.076 115.764 25.296 114.756 24.264L116.232 21.6C117.312 22.56 118.392 23.256 119.472 23.688C120.576 24.12 121.668 24.336 122.748 24.336C123.852 24.336 124.752 24.132 125.448 23.724C126.144 23.292 126.492 22.668 126.492 21.852C126.492 21.252 126.312 20.808 125.952 20.52C125.592 20.232 125.064 19.98 124.368 19.764C123.696 19.548 122.88 19.308 121.92 19.044C120.576 18.636 119.448 18.216 118.536 17.784C117.624 17.328 116.94 16.776 116.484 16.128C116.028 15.48 115.8 14.652 115.8 13.644C115.8 12.42 116.112 11.376 116.736 10.512C117.36 9.648 118.224 8.988 119.328 8.532C120.456 8.076 121.752 7.848 123.216 7.848C124.584 7.848 125.844 8.064 126.996 8.496C128.172 8.904 129.204 9.552 130.092 10.44L128.4 13.068C127.56 12.3 126.696 11.736 125.808 11.376C124.944 11.016 124.008 10.836 123 10.836C122.424 10.836 121.872 10.908 121.344 11.052C120.816 11.172 120.372 11.412 120.012 11.772C119.676 12.108 119.508 12.588 119.508 13.212C119.508 13.716 119.652 14.124 119.94 14.436C120.228 14.748 120.66 15.012 121.236 15.228C121.812 15.444 122.52 15.684 123.36 15.948C124.824 16.38 126.072 16.812 127.104 17.244C128.136 17.652 128.928 18.192 129.48 18.864C130.056 19.512 130.344 20.412 130.344 21.564C130.344 23.388 129.66 24.816 128.292 25.848C126.948 26.856 125.148 27.36 122.892 27.36ZM144.464 11.592C142.928 11.616 141.56 11.964 140.36 12.636C139.184 13.308 138.344 14.256 137.84 15.48V27H133.88V8.172H137.552V12.384C138.2 11.088 139.052 10.056 140.108 9.288C141.164 8.496 142.28 8.064 143.456 7.992C143.696 7.992 143.888 7.992 144.032 7.992C144.2 7.992 144.344 8.004 144.464 8.028V11.592ZM145.942 21.492C145.942 20.292 146.278 19.248 146.95 18.36C147.646 17.448 148.594 16.752 149.794 16.272C150.994 15.768 152.386 15.516 153.97 15.516C154.81 15.516 155.662 15.576 156.526 15.696C157.414 15.816 158.194 16.008 158.866 16.272V15.084C158.866 13.764 158.47 12.732 157.678 11.988C156.886 11.244 155.746 10.872 154.258 10.872C153.202 10.872 152.206 11.064 151.27 11.448C150.334 11.808 149.338 12.324 148.282 12.996L146.95 10.332C148.198 9.492 149.446 8.868 150.694 8.46C151.966 8.052 153.298 7.848 154.69 7.848C157.21 7.848 159.19 8.52 160.63 9.864C162.094 11.184 162.826 13.068 162.826 15.516V22.536C162.826 22.992 162.898 23.316 163.042 23.508C163.21 23.7 163.486 23.808 163.87 23.832V27C163.51 27.072 163.186 27.12 162.898 27.144C162.61 27.168 162.37 27.18 162.178 27.18C161.338 27.18 160.702 26.976 160.27 26.568C159.838 26.16 159.586 25.68 159.514 25.128L159.406 24.048C158.59 25.104 157.546 25.92 156.274 26.496C155.002 27.072 153.718 27.36 152.422 27.36C151.174 27.36 150.058 27.108 149.074 26.604C148.09 26.076 147.322 25.368 146.77 24.48C146.218 23.592 145.942 22.596 145.942 21.492ZM157.93 22.644C158.218 22.332 158.446 22.02 158.614 21.708C158.782 21.396 158.866 21.12 158.866 20.88V18.72C158.194 18.456 157.486 18.264 156.742 18.144C155.998 18 155.266 17.928 154.546 17.928C153.106 17.928 151.93 18.216 151.018 18.792C150.13 19.368 149.686 20.16 149.686 21.168C149.686 21.72 149.83 22.248 150.118 22.752C150.43 23.256 150.862 23.664 151.414 23.976C151.99 24.288 152.698 24.444 153.538 24.444C154.402 24.444 155.23 24.276 156.022 23.94C156.814 23.604 157.45 23.172 157.93 22.644ZM168.604 11.7H166.084V8.64H168.604V7.884C168.604 6.9 168.76 5.964 169.072 5.076C169.384 4.164 169.852 3.36 170.476 2.664C171.1 1.944 171.856 1.38 172.744 0.971998C173.656 0.563999 174.712 0.36 175.912 0.36C176.8 0.36 177.628 0.455999 178.396 0.647998C179.188 0.839998 179.908 1.104 180.556 1.44C181.228 1.752 181.816 2.088 182.32 2.448L180.7 5.4C180.172 4.92 179.5 4.524 178.684 4.212C177.868 3.9 177.028 3.744 176.164 3.744C175.348 3.744 174.664 3.936 174.112 4.32C173.584 4.704 173.188 5.208 172.924 5.832C172.684 6.456 172.564 7.104 172.564 7.776V8.64H182.428V27H178.468V11.7H172.564V27H168.604V11.7Z" fill="white"/>
</svg>
